<?xml version="1.0" encoding="UTF-8" standalone="no"?>
<!-- Created with Inkscape (http://www.inkscape.org/) -->

<svg
   width="200mm"
   height="43mm"
   viewBox="0 0 200 43"
   version="1.1"
   id="svg1"
   xml:space="preserve"
   inkscape:version="1.4.3 (0d15f75, 2025-12-25)"
   sodipodi:docname="Logo_FW.svg"
   inkscape:export-filename="Logo_FW_Inkscape.png"
   inkscape:export-xdpi="96"
   inkscape:export-ydpi="96"
   xmlns:inkscape="http://www.inkscape.org/namespaces/inkscape"
   xmlns:sodipodi="http://sodipodi.sourceforge.net/DTD/sodipodi-0.dtd"
   xmlns:xlink="http://www.w3.org/1999/xlink"
   xmlns="http://www.w3.org/2000/svg"
   xmlns:svg="http://www.w3.org/2000/svg"><sodipodi:namedview
     id="namedview1"
     pagecolor="#505050"
     bordercolor="#eeeeee"
     borderopacity="1"
     inkscape:showpageshadow="0"
     inkscape:pageopacity="0"
     inkscape:pagecheckerboard="0"
     inkscape:deskcolor="#505050"
     inkscape:document-units="mm"
     inkscape:zoom="1"
     inkscape:cx="383.5"
     inkscape:cy="37.5"
     inkscape:window-width="1920"
     inkscape:window-height="1009"
     inkscape:window-x="-8"
     inkscape:window-y="-8"
     inkscape:window-maximized="1"
     inkscape:current-layer="g1874" /><defs
     id="defs1"><rect
       x="497.80316"
       y="76.930913"
       width="16.970562"
       height="85.588772"
       id="rect2" /><linearGradient
       id="linearGradient3"
       inkscape:collect="always"><stop
         style="stop-color:#58a019;stop-opacity:1;"
         offset="0"
         id="stop2" /><stop
         style="stop-color:#58a019;stop-opacity:0.56976742;"
         offset="0.49039257"
         id="stop3" /></linearGradient><linearGradient
       id="linearGradient7"
       inkscape:collect="always"><stop
         style="stop-color:#58a019;stop-opacity:1;"
         offset="0"
         id="stop7" /><stop
         style="stop-color:#58a019;stop-opacity:0.56976742;"
         offset="0.50819671"
         id="stop8" /></linearGradient><linearGradient
       inkscape:collect="always"
       xlink:href="#linearGradient3"
       id="linearGradient8"
       x1="19.416285"
       y1="126.30535"
       x2="134.21208"
       y2="126.30535"
       gradientUnits="userSpaceOnUse" /><linearGradient
       inkscape:collect="always"
       xlink:href="#linearGradient7"
       id="linearGradient25"
       gradientUnits="userSpaceOnUse"
       x1="19.416285"
       y1="126.30535"
       x2="134.21208"
       y2="126.30535" /></defs><g
     id="g1874"
     transform="matrix(1.0058655,0,0,0.99260349,-9.5641644,-104.77906)"><path
       d="m 41.489974,150.73809 -2.191081,10.66911 -27.863932,3.00499 48.040995,-1.59991 c 0,0 1.185442,-7.86397 1.924947,-11.70884 0,0 -5.062596,1.51626 -9.563757,0.76378 l -2.079976,10.24898 -1.107943,0.0233 1.912545,-10.36681 c 0,0 -5.246119,-0.21597 -9.071798,-1.03456 z"
       style="fill:#ffffff;fill-opacity:1"
       id="path15"
       transform="translate(-1.9265738,-15.531934)" /><path
       d="m 65.740173,124.08493 -8.733833,2.66341 -2.491321,14.09371 c 3.863725,-0.37145 5.615669,-0.75477 8.782409,-2.14974 z"
       style="fill:#ffffff;fill-opacity:1"
       id="path9"
       transform="translate(-1.9265738,-15.531934)" /><path
       d="m 22.120614,135.94881 c -0.146019,-0.002 -0.305214,0.0394 -0.47284,0.13797 -0.676156,0.39744 -0.161971,1.89061 0.89762,1.45315 0.76494,-0.31581 0.363723,-1.5819 -0.42478,-1.59112 z"
       style="fill:url(#linearGradient25)"
       id="path17"
       transform="translate(-1.9265738,-15.531934)" /><path
       d="m 46.036983,121.64994 c 0,0 -16.643808,5.15485 -17.654736,5.56658 -1.763378,11.50211 -5.108215,34.8077 -5.108215,34.8077 l 15.139644,-1.65416 1.899626,-9.80199 c -4.262562,-0.74651 -6.951702,-0.0157 -10.867037,1.22938 8.410927,-6.07414 18.128941,-0.89743 27.329081,-2.20245 7.211514,-1.02294 9.812514,-3.60185 13.691154,-7.99692 -13.691214,7.99659 -18.178795,5.37108 -27.951782,4.74286 -3.690861,-0.23725 -8.011972,0.78281 -11.999268,2.93625 1.054282,-0.7791 2.316699,-1.67034 3.228744,-2.18074 7.251602,-4.05811 11.48497,-2.56669 17.578255,-1.87689 6.020225,0.68154 12.360758,-0.91162 19.780188,-8.05015 -16.217833,8.73763 -21.729103,3.48545 -29.82712,4.72167 -4.590595,0.70078 -7.568625,2.29842 -9.31106,3.57498 1.605,-1.44065 3.398685,-2.71147 5.288566,-3.6711 1.768457,-0.79949 4.974374,-1.46554 4.974374,-1.46554 z"
       style="fill:url(#linearGradient8)"
       id="path16"
       transform="translate(-1.9265738,-15.531934)" /><path
       d="m 15.250337,115.29284 c 1.865045,-0.95514 3.136968,1.63395 1.560873,2.20089 -1.842074,0.6626 -2.736354,-1.59891 -1.560873,-2.20089 z"
       style="fill:#58a019;stroke-width:1.62271"
       id="path1-6" /><path
       d="m 13.742389,147.42236 c 1.072805,-0.63059 1.804436,1.07876 0.89784,1.45306 -1.059591,0.43746 -1.573996,-1.05562 -0.89784,-1.45306 z"
       style="fill:#ffffff;fill-opacity:1"
       id="path1-3"
       transform="translate(-1.9265738,-15.531934)" /><path
       d="m 17.876504,147.85231 c 1.072805,-0.63059 1.804436,1.07876 0.89784,1.45306 -1.059591,0.43746 -1.573996,-1.05562 -0.89784,-1.45306 z"
       style="fill:#5d6266;fill-opacity:1"
       id="path1-3-6"
       transform="translate(-1.9265738,-15.531934)" /><path
       d="m 15.760811,152.10833 c 1.072805,-0.63059 1.804436,1.07876 0.89784,1.45306 -1.059591,0.43746 -1.573996,-1.05562 -0.89784,-1.45306 z"
       style="fill:#ffffff;fill-opacity:1"
       id="path1-3-61"
       transform="translate(-1.9265738,-15.531934)" /><path
       d="m 15.739608,139.49343 c 1.072805,-0.63059 1.804436,1.07876 0.89784,1.45306 -1.059591,0.43746 -1.573996,-1.05562 -0.89784,-1.45306 z"
       style="fill:#5d6266;fill-opacity:1"
       id="path1-3-6-7-5"
       transform="translate(-1.9265738,-15.531934)" /><path
       d="m 19.754713,150.92807 c 1.072805,-0.63059 1.804436,1.07876 0.89784,1.45306 -1.059591,0.43746 -1.573996,-1.05562 -0.89784,-1.45306 z"
       style="fill:#ffffff;fill-opacity:1"
       id="path1-3-34"
       transform="translate(-1.9265738,-15.531934)" /><path
       d="m 16.962349,157.42085 c 2.041099,-0.98009 3.433087,1.67666 1.708214,2.25842 -2.015958,0.67992 -2.994656,-1.6407 -1.708214,-2.25842 z"
       style="fill:#ffffff;fill-opacity:1;stroke-width:1.71962"
       id="path1-3-8"
       transform="translate(-1.9265738,-15.531934)" /><path
       d="m 18.274469,142.0195 c 1.688992,-0.93016 2.84085,1.59125 1.413533,2.14337 -1.668189,0.64528 -2.478052,-1.55712 -1.413533,-2.14337 z"
       style="fill:#5d6266;fill-opacity:1;stroke-width:1.52391"
       id="path1-3-6-7-1"
       transform="translate(-1.9265738,-15.531934)" /><path
       style="fill:#5d6266;fill-opacity:1;stroke-width:0.264583"
       d="m 46.651505,124.34945 9.789584,-3.25768 -3.484005,19.84825 c 0,0 -3.317992,-0.25806 -4.866906,-0.39311 -1.548915,-0.13504 -4.613672,-0.2067 -4.613672,-0.2067 z"
       id="path5"
       sodipodi:nodetypes="ccczcc"
       transform="translate(-1.9265738,-15.531934)" /><text
       xml:space="preserve"
       style="font-style:normal;font-variant:normal;font-weight:bold;font-stretch:normal;font-size:15.5345px;font-family:Arial;-inkscape-font-specification:'Arial Bold';writing-mode:lr-tb;direction:ltr;fill:#ffffff;fill-opacity:1;stroke-width:0.264583"
       x="69.007317"
       y="134.97258"
       id="text25"><tspan
         sodipodi:role="line"
         id="tspan25"
         style="font-size:15.5345px;fill:#ffffff;fill-opacity:1;stroke-width:0.264583"
         x="69.007317"
         y="134.97258">Filter &amp;</tspan></text><text
       xml:space="preserve"
       style="font-weight:bold;font-size:16.9467px;font-family:Arial;-inkscape-font-specification:'Arial Bold';writing-mode:lr-tb;direction:ltr;fill:#489422;fill-opacity:1;stroke-width:0.264792"
       x="69.564751"
       y="119.24802"
       id="text1"
       transform="scale(0.99338574,1.0066583)"><tspan
         sodipodi:role="line"
         id="tspan1"
         style="font-size:16.9467px;fill:#489422;fill-opacity:1;stroke-width:0.264792"
         x="69.564751"
         y="119.24802">Knaus</tspan></text><text
       xml:space="preserve"
       transform="matrix(0.26304047,0,0,0.26655491,9.5083929,105.55983)"
       id="text2"
       style="fill:#000000;text-orientation:auto;-inkscape-font-specification:'Arial Bold';font-family:Arial;font-size:32px;font-weight:bold;writing-mode:lr-tb;direction:ltr;white-space:pre;shape-inside:url(#rect2)" /><text
       xml:space="preserve"
       style="font-weight:bold;font-size:15.5345px;font-family:Arial;-inkscape-font-specification:'Arial Bold';writing-mode:lr-tb;direction:ltr;fill:#ffffff;fill-opacity:1;stroke-width:0.264792"
       x="68.501434"
       y="147.01213"
       id="text3"
       transform="scale(0.99338574,1.0066583)"><tspan
         sodipodi:role="line"
         id="tspan3"
         style="font-size:15.5345px;fill:#ffffff;fill-opacity:1;stroke-width:0.264792"
         x="68.501434"
         y="147.01213">Abscheidetechnik </tspan></text></g></svg>
